# xmcd CD database file
# Copyright 1993-1996 (C) Ti Kan
#
# Track frame offsets:
#    150
#    98182
#    172662
#    248287
#    291780
#    295457
#    299045
#
# Disc length: 4031 seconds
#
# Revision: 1
# Processed by: cddbd v1.4b41PL1 Copyright (c) Steve Scherf et al.
# Submitted via: MyCDplayer 2.1.9  (wjohn@fix.net)
#
DISCID=640fbd07
DTITLE=Stevie Ray Vaughan - Up Close-Radio Show - Disc 2
DYEAR=1900
DGENRE=
TTITLE0=Stevie Ray Vaughan Radio Special-4
TTITLE1=Stevie Ray Vaughan Radio Special-5
TTITLE2=Stevie Ray Vaughan Radio Special-6
TTITLE3=Stevie Ray Vaughan Radio Special-7
TTITLE4=Stevie Ray Vaughan Radio Special - Promo 1
TTITLE5=Stevie Ray Vaughan Radio Special - Promo 2
TTITLE6=Stevie Ray Vaughan Radio Special - Promo 3
EXTD=
EXTT0=
EXTT1=
EXTT2=
EXTT3=
EXTT4=
EXTT5=
EXTT6=
PLAYORDER=
